HIERARCHY
ROOT Hips
{
  OFFSET -31.8304 87.6567 9.73149
  CHANNELS 6 Xposition Yposition Zposition Zrotation Xrotation Yrotation
  JOINT RightUpLeg
  {
    OFFSET -9.32418 -1.57119 -0.025657
    CHANNELS 3 Zrotation Xrotation Yrotation
    JOINT RightLeg
    {
      OFFSET -0.0960642 -41.8747 0.0520458
      CHANNELS 3 Zrotation Xrotation Yrotation
      JOINT RightFoot
      {
        OFFSET -0.946809 -41.5361 -0.0790467
        CHANNELS 3 Zrotation Xrotation Yrotation
        End Site
        {
          OFFSET 0 -7.69 17.5
        }
      }
    }
  }
  JOINT LeftUpLeg
  {
    OFFSET 9.29131 -1.5975 0.016395
    CHANNELS 3 Zrotation Xrotation Yrotation
    JOINT LeftLeg
    {
      OFFSET 0.0745403 -41.866 0.0326132
      CHANNELS 3 Zrotation Xrotation Yrotation
      JOINT LeftFoot
      {
        OFFSET -0.351076 -42.0262 0.246541
        CHANNELS 3 Zrotation Xrotation Yrotation
        End Site
        {
          OFFSET 0 -7.69 17.5
        }
      }
    }
  }
  JOINT Spine
  {
    OFFSET 0.0368046 14.2997 0.0305393
    CHANNELS 3 Zrotation Xrotation Yrotation
    JOINT Spine1
    {
      OFFSET 0.0160572 9.72186 0.0245355
      CHANNELS 3 Zrotation Xrotation Yrotation
      JOINT Spine2
      {
        OFFSET 0.0170914 10.1127 0.0244287
        CHANNELS 3 Zrotation Xrotation Yrotation
        JOINT Spine3
        {
          OFFSET 0.0355733 9.71175 0.0166032
          CHANNELS 3 Zrotation Xrotation Yrotation
          JOINT Neck
          {
            OFFSET -0.0373761 10.381 0.0200737
            CHANNELS 3 Zrotation Xrotation Yrotation
            JOINT Head
            {
              OFFSET 0.0251406 9.49255 0.0511295
              CHANNELS 3 Zrotation Xrotation Yrotation
              End Site
              {
                OFFSET 0 15.95 0
              }
            }
          }
          JOINT RightShoulder
          {
            OFFSET -3.16188 6.95189 0.0539135
            CHANNELS 3 Zrotation Xrotation Yrotation
            JOINT RightArm
            {
              OFFSET -12.8775 0.0419834 0.0957705
              CHANNELS 3 Zrotation Xrotation Yrotation
              JOINT RightForeArm
              {
                OFFSET -26.3807 0.021842 -0.143268
                CHANNELS 3 Zrotation Xrotation Yrotation
                JOINT RightHand
                {
                  OFFSET -26.0283 -0.00806752 -0.000571111
                  CHANNELS 3 Zrotation Xrotation Yrotation
                  JOINT RightHandThumb1
                  {
                    OFFSET -2.48905 0.190105 3.12053
                    CHANNELS 3 Zrotation Xrotation Yrotation
                    JOINT RightHandThumb2
                    {
                      OFFSET -3.68274 0 0
                      CHANNELS 3 Zrotation Xrotation Yrotation
                      JOINT RightHandThumb3
                      {
                        OFFSET -2.55832 0 0
                        CHANNELS 3 Zrotation Xrotation Yrotation
                        End Site
                        {
                          OFFSET -2.194 0 0
                        }
                      }
                    }
                  }
                  JOINT RightInHandIndex
                  {
                    OFFSET -3.22368 0.508421 1.97842
                    CHANNELS 3 Zrotation Xrotation Yrotation
                    JOINT RightHandIndex1
                    {
                      OFFSET -5.21684 -0.091368 0.999158
                      CHANNELS 3 Zrotation Xrotation Yrotation
                      JOINT RightHandIndex2
                      {
                        OFFSET -3.61937 0 0
                        CHANNELS 3 Zrotation Xrotation Yrotation
                        JOINT RightHandIndex3
                        {
                          OFFSET -2.0521 0 0
                          CHANNELS 3 Zrotation Xrotation Yrotation
                          End Site
                          {
                            OFFSET -1.805 0 0
                          }
                        }
                      }
                    }
                  }
                  JOINT RightInHandMiddle
                  {
                    OFFSET -3.38211 0.517263 0.756737
                    CHANNELS 3 Zrotation Xrotation Yrotation
                    JOINT RightHandMiddle1
                    {
                      OFFSET -5.17411 -0.084 0.313895
                      CHANNELS 3 Zrotation Xrotation Yrotation
                      JOINT RightHandMiddle2
                      {
                        OFFSET -3.94947 0 0
                        CHANNELS 3 Zrotation Xrotation Yrotation
                        JOINT RightHandMiddle3
                        {
                          OFFSET -2.47579 0 0
                          CHANNELS 3 Zrotation Xrotation Yrotation
                          End Site
                          {
                            OFFSET -1.975 0 0
                          }
                        }
                      }
                    }
                  }
                  JOINT RightInHandRing
                  {
                    OFFSET -3.36516 0.537895 -0.128947
                    CHANNELS 3 Zrotation Xrotation Yrotation
                    JOINT RightHandRing1
                    {
                      OFFSET -4.63474 -0.022105 -0.478947
                      CHANNELS 3 Zrotation Xrotation Yrotation
                      JOINT RightHandRing2
                      {
                        OFFSET -3.44238 0 0
                        CHANNELS 3 Zrotation Xrotation Yrotation
                        JOINT RightHandRing3
                        {
                          OFFSET -2.3881 0 0
                          CHANNELS 3 Zrotation Xrotation Yrotation
                          End Site
                          {
                            OFFSET -1.857 0 0
                          }
                        }
                      }
                    }
                  }
                  JOINT RightInHandPinky
                  {
                    OFFSET -3.16105 0.469368 -1.20179
                    CHANNELS 3 Zrotation Xrotation Yrotation
                    JOINT RightHandPinky1
                    {
                      OFFSET -4.14105 -0.022105 -1.09053
                      CHANNELS 3 Zrotation Xrotation Yrotation
                      JOINT RightHandPinky2
                      {
                        OFFSET -2.75653 0 0
                        CHANNELS 3 Zrotation Xrotation Yrotation
                        JOINT RightHandPinky3
                        {
                          OFFSET -1.74189 0 0
                          CHANNELS 3 Zrotation Xrotation Yrotation
                          End Site
                          {
                            OFFSET -1.645 0 0
                          }
                        }
                      }
                    }
                  }
                }
              }
            }
          }
          JOINT LeftShoulder
          {
            OFFSET 3.22497 6.89097 -0.0161007
            CHANNELS 3 Zrotation Xrotation Yrotation
            JOINT LeftArm
            {
              OFFSET 12.8034 -0.0603944 -0.0289408
              CHANNELS 3 Zrotation Xrotation Yrotation
              JOINT LeftForeArm
              {
                OFFSET 26.5164 -0.00331163 -0.0289653
                CHANNELS 3 Zrotation Xrotation Yrotation
                JOINT LeftHand
                {
                  OFFSET 25.9929 -0.00353192 -0.0207406
                  CHANNELS 3 Zrotation Xrotation Yrotation
                  JOINT LeftHandThumb1
                  {
                    OFFSET 2.48905 0.190105 3.12053
                    CHANNELS 3 Zrotation Xrotation Yrotation
                    JOINT LeftHandThumb2
                    {
                      OFFSET 3.68274 0 0
                      CHANNELS 3 Zrotation Xrotation Yrotation
                      JOINT LeftHandThumb3
                      {
                        OFFSET 2.55832 0 0
                        CHANNELS 3 Zrotation Xrotation Yrotation
                        End Site
                        {
                          OFFSET 2.194 0 0
                        }
                      }
                    }
                  }
                  JOINT LeftInHandIndex
                  {
                    OFFSET 3.22368 0.508421 1.97842
                    CHANNELS 3 Zrotation Xrotation Yrotation
                    JOINT LeftHandIndex1
                    {
                      OFFSET 5.21684 -0.091368 0.999158
                      CHANNELS 3 Zrotation Xrotation Yrotation
                      JOINT LeftHandIndex2
                      {
                        OFFSET 3.61937 0 0
                        CHANNELS 3 Zrotation Xrotation Yrotation
                        JOINT LeftHandIndex3
                        {
                          OFFSET 2.0521 0 0
                          CHANNELS 3 Zrotation Xrotation Yrotation
                          End Site
                          {
                            OFFSET 1.805 0 0
                          }
                        }
                      }
                    }
                  }
                  JOINT LeftInHandMiddle
                  {
                    OFFSET 3.38211 0.517263 0.756737
                    CHANNELS 3 Zrotation Xrotation Yrotation
                    JOINT LeftHandMiddle1
                    {
                      OFFSET 5.17411 -0.084 0.313895
                      CHANNELS 3 Zrotation Xrotation Yrotation
                      JOINT LeftHandMiddle2
                      {
                        OFFSET 3.94947 0 0
                        CHANNELS 3 Zrotation Xrotation Yrotation
                        JOINT LeftHandMiddle3
                        {
                          OFFSET 2.47579 0 0
                          CHANNELS 3 Zrotation Xrotation Yrotation
                          End Site
                          {
                            OFFSET 1.975 0 0
                          }
                        }
                      }
                    }
                  }
                  JOINT LeftInHandRing
                  {
                    OFFSET 3.36516 0.537895 -0.128947
                    CHANNELS 3 Zrotation Xrotation Yrotation
                    JOINT LeftHandRing1
                    {
                      OFFSET 4.63474 -0.022105 -0.478947
                      CHANNELS 3 Zrotation Xrotation Yrotation
                      JOINT LeftHandRing2
                      {
                        OFFSET 3.44238 0 0
                        CHANNELS 3 Zrotation Xrotation Yrotation
                        JOINT LeftHandRing3
                        {
                          OFFSET 2.3881 0 0
                          CHANNELS 3 Zrotation Xrotation Yrotation
                          End Site
                          {
                            OFFSET 1.857 0 0
                          }
                        }
                      }
                    }
                  }
                  JOINT LeftInHandPinky
                  {
                    OFFSET 3.16105 0.469368 -1.20179
                    CHANNELS 3 Zrotation Xrotation Yrotation
                    JOINT LeftHandPinky1
                    {
                      OFFSET 4.14105 -0.022105 -1.09053
                      CHANNELS 3 Zrotation Xrotation Yrotation
                      JOINT LeftHandPinky2
                      {
                        OFFSET 2.75653 0 0
                        CHANNELS 3 Zrotation Xrotation Yrotation
                        JOINT LeftHandPinky3
                        {
                          OFFSET 1.74189 0 0
                          CHANNELS 3 Zrotation Xrotation Yrotation
                          End Site
                          {
                            OFFSET 1.645 0 0
                          }
                        }
                      }
                    }
                  }
                }
              }
            }
          }
        }
      }
    }
  }
}
MOTION
Frames:	6
Frame Time:	0.00833333
-31.8388 87.6589 9.69626 -17.6289 -3.87385 89.8223 -6.46512 -30.0922 -0.499536 -0.318032 30.6881 0.60186 -3.44772 -13.1237 -10.1774 15.5684 -36.0003 6.28115 0.0223349 40.6234 -0.781795 0.42685 -16.7417 0.846269 0.500031 1.11739 0.436922 0.994621 2.23851 0.859992 0.994615 2.23851 0.86004 0.994619 2.23852 0.860021 7.67969 -0.653094 -0.727121 -8.7631 27.3956 0.897508 0.153832 -0.0888681 -0.131535 79.7044 24.9878 32.2641 -9.47316 -3.55618 16.7942 -1.24758 -30.508 -4.30145 3.97569e-16 -7.95139e-16 -3.47873e-16 -7.25317e-08 8.24094e-10 -2.87388e-05 0 0 -2.03754e-15 3.97569e-16 -7.95139e-16 -3.47873e-16 7.72434e-32 -1.59028e-15 2.78299e-15 7.95139e-16 -7.95139e-16 2.6339e-15 3.5863e-32 -7.95139e-16 2.5842e-15 3.97569e-16 -7.95139e-16 -3.47873e-16 7.72434e-32 -1.59028e-15 2.78299e-15 5.88475e-05 1.85964e-09 8.19287e-09 1.59028e-15 -7.95139e-16 -8.44835e-16 3.97569e-16 -7.95139e-16 -3.47873e-16 7.72434e-32 -1.59028e-15 2.78299e-15 5.79944e-05 -2.33488e-08 -2.03695e-07 -7.95139e-16 7.95139e-16 -3.42904e-15 3.97569e-16 -7.95139e-16 -3.47873e-16 7.72434e-32 -1.59028e-15 2.78299e-15 0.000198188 -4.52037e-08 -9.07583e-08 7.95139e-16 -7.95139e-16 -3.97569e-16 0.153832 -0.0888681 -0.131535 -32.675 58.8839 -73.9079 12.6748 -6.27734 -22.8435 3.36794 -44.1354 8.56603 3.18055e-15 6.36111e-15 3.18055e-15 2.20695e-32 1.59028e-15 -7.95139e-16 -2.20695e-32 1.59028e-15 7.95139e-16 3.18055e-15 6.36111e-15 3.18055e-15 2.20695e-32 1.59028e-15 -7.95139e-16 -0.000189233 1.31077e-08 -1.55717e-07 -4.41391e-32 -1.59028e-15 -1.59028e-15 3.18055e-15 6.36111e-15 3.18055e-15 2.20695e-32 1.59028e-15 -7.95139e-16 -2.20695e-32 1.59028e-15 7.95139e-16 -1.76556e-31 6.36111e-15 1.59028e-15 3.18055e-15 6.36111e-15 3.18055e-15 2.20695e-32 1.59028e-15 -7.95139e-16 -2.20695e-32 1.59028e-15 7.95139e-16 -1.76556e-31 6.36111e-15 1.59028e-15 3.18055e-15 6.36111e-15 3.18055e-15 2.20695e-32 1.59028e-15 -7.95139e-16 -2.20695e-32 1.59028e-15 7.95139e-16 -1.76556e-31 6.36111e-15 1.59028e-15 
-31.84 87.6603 9.68422 -17.6472 -3.84507 89.826 -6.51107 -30.0997 -0.499672 -0.317752 30.6656 0.602507 -3.45165 -13.0722 -10.2352 15.5157 -35.988 6.18016 0.0218341 40.6073 -0.781185 0.417928 -16.7933 0.804505 0.500174 1.11263 0.436756 0.995798 2.22899 0.855915 0.995796 2.22898 0.855893 0.995798 2.22898 0.855923 7.64799 -0.633764 -0.721488 -8.74184 27.3797 0.925654 0.16856 -0.067791 -0.134023 79.7046 24.9814 32.2726 -9.46411 -3.54994 16.7732 -1.24203 -30.4506 -4.29156 -7.95139e-16 0 -1.98785e-16 -7.25317e-08 8.24097e-10 -2.87388e-05 1.19271e-15 1.59028e-15 5.46658e-16 -7.95139e-16 0 -1.98785e-16 -4.06907e-32 7.95139e-16 2.93207e-15 3.97569e-16 0 -2.98177e-16 1.19271e-15 -7.95139e-16 2.78299e-15 -7.95139e-16 0 -1.98785e-16 -4.06907e-32 7.95139e-16 2.93207e-15 5.88475e-05 1.85965e-09 8.19287e-09 1.59028e-15 -7.95139e-16 1.49089e-15 -7.95139e-16 0 -1.98785e-16 -4.06907e-32 7.95139e-16 2.93207e-15 5.79944e-05 -2.33488e-08 -2.03695e-07 0 0 -7.15625e-15 -7.95139e-16 0 -1.98785e-16 -4.06907e-32 7.95139e-16 2.93207e-15 0.000198188 -4.52037e-08 -9.07583e-08 2.38542e-15 -1.59028e-15 -1.54058e-15 0.16856 -0.067791 -0.134023 -32.5095 58.8647 -74.0023 12.6572 -6.28673 -22.8818 3.37249 -44.1573 8.57283 -6.36111e-15 3.18055e-15 -2.38542e-15 -3.18055e-15 0 -0 -3.18055e-15 4.77083e-15 -3.18055e-15 -6.36111e-15 3.18055e-15 -2.38542e-15 -3.18055e-15 0 -0 -0.000189233 1.31077e-08 -1.55717e-07 1.32417e-31 4.77083e-15 -1.59028e-15 -6.36111e-15 3.18055e-15 -2.38542e-15 -3.18055e-15 0 -0 -3.18055e-15 4.77083e-15 -3.18055e-15 1.10348e-31 1.59028e-15 -3.97569e-15 -6.36111e-15 3.18055e-15 -2.38542e-15 -3.18055e-15 0 -0 -3.18055e-15 4.77083e-15 -3.18055e-15 1.10348e-31 1.59028e-15 -3.97569e-15 -6.36111e-15 3.18055e-15 -2.38542e-15 -3.18055e-15 0 -0 -3.18055e-15 4.77083e-15 -3.18055e-15 1.10348e-31 1.59028e-15 -3.97569e-15 
-31.8415 87.662 9.66742 -17.6634 -3.82568 89.831 -6.54558 -30.0971 -0.500082 -0.317271 30.6294 0.602989 -3.45147 -13.0252 -10.2734 15.4754 -35.9747 6.08292 0.0215937 40.6045 -0.780722 0.407983 -16.8553 0.753747 0.500729 1.10808 0.437267 0.997461 2.21986 0.855363 0.997459 2.21986 0.85537 0.997462 2.21986 0.855369 7.63059 -0.615577 -0.714692 -8.73487 27.3651 0.947017 0.179485 -0.0529294 -0.1349 79.6981 24.9982 32.2772 -9.46499 -3.55025 16.7741 -1.24186 -30.4446 -4.29049 -3.97569e-16 -7.95139e-16 3.97569e-15 -7.25317e-08 8.24095e-10 -2.87388e-05 3.97569e-16 7.95139e-16 4.42296e-15 -3.97569e-16 -7.95139e-16 3.97569e-15 1.59028e-15 -7.95139e-16 -2.5345e-15 7.95139e-16 -2.38542e-15 -2.6339e-15 7.95139e-16 -1.59028e-15 4.47266e-16 -3.97569e-16 -7.95139e-16 3.97569e-15 1.59028e-15 -7.95139e-16 -2.5345e-15 5.88475e-05 1.85964e-09 8.19288e-09 0 0 -1.83876e-15 -3.97569e-16 -7.95139e-16 3.97569e-15 1.59028e-15 -7.95139e-16 -2.5345e-15 5.79944e-05 -2.33488e-08 -2.03695e-07 -3.97569e-16 -1.59028e-15 5.96354e-16 -3.97569e-16 -7.95139e-16 3.97569e-15 1.59028e-15 -7.95139e-16 -2.5345e-15 0.000198188 -4.52038e-08 -9.07583e-08 3.97569e-16 -7.95139e-16 6.5102e-15 0.179485 -0.0529294 -0.1349 -32.4121 58.8242 -74.0077 12.6089 -6.2986 -22.9395 3.36345 -44.1139 8.55976 0 0 -4.77083e-15 -6.36111e-15 -3.18055e-15 -2.38542e-15 3.18055e-15 -3.18055e-15 -4.77083e-15 0 0 -4.77083e-15 -6.36111e-15 -3.18055e-15 -2.38542e-15 -0.000189233 1.31077e-08 -1.55717e-07 -6.36111e-15 -7.95139e-15 5.56597e-15 0 0 -4.77083e-15 -6.36111e-15 -3.18055e-15 -2.38542e-15 3.18055e-15 -3.18055e-15 -4.77083e-15 -3.18055e-15 1.59028e-15 -3.97569e-15 0 0 -4.77083e-15 -6.36111e-15 -3.18055e-15 -2.38542e-15 3.18055e-15 -3.18055e-15 -4.77083e-15 -3.18055e-15 1.59028e-15 -3.97569e-15 0 0 -4.77083e-15 -6.36111e-15 -3.18055e-15 -2.38542e-15 3.18055e-15 -3.18055e-15 -4.77083e-15 -3.18055e-15 1.59028e-15 -3.97569e-15 
-31.8515 87.6692 9.63685 -17.6777 -3.8194 89.8392 -6.56483 -30.0761 -0.500396 -0.316401 30.564 0.60321 -3.44423 -12.9817 -10.2789 15.4487 -35.9524 5.96126 0.0217522 40.6228 -0.780496 0.393338 -16.9493 0.680676 0.501418 1.10352 0.438298 0.999205 2.21077 0.857334 0.999203 2.21078 0.857372 0.999207 2.21078 0.857341 7.63426 -0.598362 -0.710137 -8.74816 27.3514 0.958762 0.182862 -0.0477891 -0.133712 79.6768 25.0593 32.2763 -9.48228 -3.56101 16.8102 -1.249 -30.5243 -4.30425 3.97569e-16 -7.95139e-16 1.98785e-15 -7.25317e-08 8.24096e-10 -2.87388e-05 -3.97569e-16 0 8.44835e-16 3.97569e-16 -7.95139e-16 1.98785e-15 7.95139e-16 -7.95139e-16 1.98785e-15 3.97569e-16 -1.59028e-15 1.88845e-15 7.95139e-16 -2.38542e-15 1.73937e-15 3.97569e-16 -7.95139e-16 1.98785e-15 7.95139e-16 -7.95139e-16 1.98785e-15 5.88475e-05 1.85964e-09 8.19288e-09 7.95139e-16 0 2.5345e-15 3.97569e-16 -7.95139e-16 1.98785e-15 7.95139e-16 -7.95139e-16 1.98785e-15 5.79944e-05 -2.33488e-08 -2.03695e-07 -3.97569e-16 7.95139e-16 3.97569e-16 3.97569e-16 -7.95139e-16 1.98785e-15 7.95139e-16 -7.95139e-16 1.98785e-15 0.000198188 -4.52037e-08 -9.07583e-08 3.72423e-32 -7.95139e-16 2.68359e-15 0.182862 -0.0477891 -0.133712 -32.5221 58.8883 -74.0363 12.6804 -6.25671 -22.7781 3.32702 -43.9374 8.5069 6.36111e-15 0 2.38542e-15 3.18055e-15 1.59028e-15 -7.95139e-16 3.18055e-15 -1.59028e-15 2.38542e-15 6.36111e-15 0 2.38542e-15 3.18055e-15 1.59028e-15 -7.95139e-16 -0.000189233 1.31077e-08 -1.55717e-07 6.36111e-15 0 -4.77083e-15 6.36111e-15 0 2.38542e-15 3.18055e-15 1.59028e-15 -7.95139e-16 3.18055e-15 -1.59028e-15 2.38542e-15 3.18055e-15 3.18055e-15 -4.77083e-15 6.36111e-15 0 2.38542e-15 3.18055e-15 1.59028e-15 -7.95139e-16 3.18055e-15 -1.59028e-15 2.38542e-15 3.18055e-15 3.18055e-15 -4.77083e-15 6.36111e-15 0 2.38542e-15 3.18055e-15 1.59028e-15 -7.95139e-16 3.18055e-15 -1.59028e-15 2.38542e-15 3.18055e-15 3.18055e-15 -4.77083e-15 
-31.8586 87.6792 9.625 -17.6927 -3.81857 89.8473 -6.57815 -30.0438 -0.500322 -0.315254 30.4786 0.60323 -3.43098 -12.9111 -10.2781 15.4273 -35.9202 5.81288 0.0222441 40.6584 -0.780466 0.374791 -17.0776 0.589026 0.502912 1.09854 0.439696 1.00054 2.20083 0.863349 1.00054 2.20083 0.863324 1.00054 2.20082 0.863345 7.65102 -0.580155 -0.70617 -8.77216 27.3376 0.962609 0.179372 -0.0477051 -0.128244 79.6454 25.1564 32.2733 -9.51355 -3.57933 16.8717 -1.26154 -30.6633 -4.32825 3.97569e-16 0 3.42904e-15 -7.25317e-08 8.24097e-10 -2.87388e-05 1.51728e-32 7.95139e-16 -1.09332e-15 3.97569e-16 0 3.42904e-15 7.95139e-16 1.59028e-15 3.37934e-15 4.75874e-32 -7.95139e-16 3.42904e-15 -3.97569e-16 7.95139e-16 3.42904e-15 3.97569e-16 0 3.42904e-15 7.95139e-16 1.59028e-15 3.37934e-15 5.88475e-05 1.85964e-09 8.19287e-09 3.97569e-16 0 1.73937e-15 3.97569e-16 0 3.42904e-15 7.95139e-16 1.59028e-15 3.37934e-15 5.79944e-05 -2.33488e-08 -2.03695e-07 1.19271e-15 0 -9.93923e-17 3.97569e-16 0 3.42904e-15 7.95139e-16 1.59028e-15 3.37934e-15 0.000198188 -4.52037e-08 -9.07583e-08 -4.96564e-32 -1.59028e-15 -1.78906e-15 0.179372 -0.0477051 -0.128244 -32.6948 58.9159 -73.9483 12.7008 -6.22287 -22.664 3.27374 -43.675 8.42901 -0 0 5.56597e-15 -3.18055e-15 -3.18055e-15 -2.38542e-15 3.18055e-15 -6.36111e-15 3.97569e-15 -0 0 5.56597e-15 -3.18055e-15 -3.18055e-15 -2.38542e-15 -0.000189233 1.31077e-08 -1.55717e-07 -6.36111e-15 0 9.54166e-15 -0 0 5.56597e-15 -3.18055e-15 -3.18055e-15 -2.38542e-15 3.18055e-15 -6.36111e-15 3.97569e-15 -3.08973e-31 -3.18055e-15 -5.56597e-15 -0 0 5.56597e-15 -3.18055e-15 -3.18055e-15 -2.38542e-15 3.18055e-15 -6.36111e-15 3.97569e-15 -3.08973e-31 -3.18055e-15 -5.56597e-15 -0 0 5.56597e-15 -3.18055e-15 -3.18055e-15 -2.38542e-15 3.18055e-15 -6.36111e-15 3.97569e-15 -3.08973e-31 -3.18055e-15 -5.56597e-15 
-31.8603 87.691 9.61455 -17.7051 -3.82017 89.8535 -6.58666 -30.012 -0.499593 -0.314158 30.3999 0.603217 -3.41855 -12.8387 -10.2806 15.4165 -35.8926 5.70395 0.0227269 40.6924 -0.780411 0.357703 -17.1895 0.505709 0.504076 1.09392 0.441304 1.0011 2.19164 0.870466 1.0011 2.19165 0.870478 1.0011 2.19164 0.870467 7.67103 -0.562865 -0.701701 -8.80123 27.3251 0.964762 0.176601 -0.0478698 -0.121609 79.6217 25.2502 32.2681 -9.54959 -3.59843 16.9356 -1.27435 -30.8039 -4.35266 3.97569e-16 0 7.65321e-15 -7.25317e-08 8.24096e-10 -2.87388e-05 3.97569e-16 -1.59028e-15 1.98785e-16 3.97569e-16 0 7.65321e-15 7.95139e-16 0 7.65321e-15 -3.97569e-16 -7.95139e-16 1.2921e-15 1.98785e-15 7.95139e-16 1.2424e-15 3.97569e-16 0 7.65321e-15 7.95139e-16 0 7.65321e-15 5.88475e-05 1.85964e-09 8.19288e-09 -3.03456e-32 7.95139e-16 2.18663e-15 3.97569e-16 0 7.65321e-15 7.95139e-16 0 7.65321e-15 5.79944e-05 -2.33488e-08 -2.03695e-07 -3.97569e-16 -7.95139e-16 3.67752e-15 3.97569e-16 0 7.65321e-15 7.95139e-16 0 7.65321e-15 0.000198188 -4.52037e-08 -9.07583e-08 1.19271e-15 7.95139e-16 -1.19271e-15 0.176601 -0.0478698 -0.121609 -32.7886 58.845 -73.7509 12.6027 -6.2303 -22.7292 3.22753 -43.4437 8.36105 -3.18055e-15 3.18055e-15 2.38542e-15 6.36111e-15 3.18055e-15 -3.18055e-15 3.18055e-15 -3.18055e-15 -6.36111e-15 -3.18055e-15 3.18055e-15 2.38542e-15 6.36111e-15 3.18055e-15 -3.18055e-15 -0.000189233 1.31077e-08 -1.55717e-07 1.32417e-31 3.18055e-15 -2.38542e-15 -3.18055e-15 3.18055e-15 2.38542e-15 6.36111e-15 3.18055e-15 -3.18055e-15 3.18055e-15 -3.18055e-15 -6.36111e-15 3.18055e-15 3.18055e-15 1.59028e-15 -3.18055e-15 3.18055e-15 2.38542e-15 6.36111e-15 3.18055e-15 -3.18055e-15 3.18055e-15 -3.18055e-15 -6.36111e-15 3.18055e-15 3.18055e-15 1.59028e-15 -3.18055e-15 3.18055e-15 2.38542e-15 6.36111e-15 3.18055e-15 -3.18055e-15 3.18055e-15 -3.18055e-15 -6.36111e-15 3.18055e-15 3.18055e-15 1.59028e-15 
